<svg xmlns="http://www.w3.org/2000/svg" width="48" height="56" viewBox="0 0 48 56"><path fill="#C9C7C7" d="M49.972 728.938c-1.644-1.474-.976-3.435-.976-5.182-.026-220.284 0-440.568-.085-660.852-.004-9.365 5.361-15.731 11.374-21.252C73.559 29.46 90.58 25.023 107.579 21.043c18.661-4.37 37.655-6.973 56.589-9.805 10.286-1.539 20.695-2.273 31.063-3.224 62.607-5.744 125.368-2.258 188.055-2.767 16.29-.133 32.666 1.729 48.973 3.471 17.92 1.915 35.712 4.495 53.504 7.243 22.671 3.503 45.273 7.672 65.456 19.032 11.89 6.692 21.018 16.482 19.595 32.006-2.52.172-2.801-1.863-3.237-3.504-.957-3.603-2.877-6.483-5.881-8.673-10.929-15.703-27.836-21.103-45.026-25.515-20.996-5.39-42.524-8.03-63.998-10.72-27.575-3.454-55.269-5.214-83.054-6.331-36.458-1.466-72.91-.966-109.344-.537-23.896.281-47.821 1.939-71.658 4.49-27.331 2.924-54.568 6.336-81.43 12.222-11.061 2.424-21.933 5.661-31.87 11.371-7.67 4.407-14.094 10.017-17.748 18.322a8.419 8.419 0 0 1-2.046 2.817c-2.418 2.228-2.688 5.253-2.986 8.225-.167 1.651-.042 3.329-.042 4.995-.006 214.41.001 428.819-.009 643.229 0 2.166.167 4.334.017 6.494-.144 2-.321 4.054-2.53 5.054z"/><path fill="#BAB7B7" d="M563.019 55.018c3.994 1.081 4.538 4.739 5.674 7.844.548 1.5.333 3.297 2.121 4.137.03 2.665.091 5.331.091 7.996.004 215.462-.019 430.926.095 646.388.005 7.604-2.263 13.935-6.997 19.616-1.476.843-1.643 4.304-4.558 2.274-.24-1.245.265-2.307.943-3.254 3.999-5.585 4.837-11.845 4.014-18.48-.151-52.36-.042-104.711-.071-157.063-.003-5.151.006-10.303-.282-15.449.276-3.991.271-7.989.271-11.987-.003-153.252-.007-306.505.011-459.756.001-6.006.039-11.993-1.466-17.874-.371-1.443-.612-2.954.154-4.392z"/><path fill="#B4B1B1" d="M49.972 728.938c1.147-1.793 1.031-3.801 1.03-5.806-.008-126.814-.01-253.629-.009-380.443 0-90.625-.024-181.251.104-271.875.005-3.81-.795-8.455 3.915-10.804.724.813.817 1.786.732 2.807-.509 2.471-.327 4.978-.327 7.47-.009 157.025-.008 314.051-.004 471.075 0 2.163-.095 4.331.211 6.483.167.639.235 1.288.239 1.945-.226 3.488-.285 6.98-.285 10.479.01 48.945.033 97.892-.024 146.837-.008 7.011.146 13.978 1.652 20.841-.345 8.534 4.529 14.235 10.745 18.976 5.795 4.42 12.364 7.569 19.028 10.5 1.691.743 4.057.862 4.16 3.539-1.137 1.048-2.499.945-3.748.465-10.22-3.928-20.64-7.516-28.113-16.23-.873-1.018-1.438-2.229-2.349-3.196-2.84-4.079-6.33-7.809-6.957-13.063z"/><path fill="#DFDDDD" d="M56.93 741.998c7.629 8.132 17.137 13.249 27.436 17.103 2.15.807 4.214 1.931 6.615 1.82 1.623-.865 3.257-.431 4.858.021 26.715 7.51 54.148 11 81.579 14.431 38.565 4.822 77.327 5.45 116.133 5.035 15.652-.167 31.311-.063 46.964-.023 22.122.389 44.197-.129 66.302-1.643 32.034-2.194 63.776-6.353 95.295-12.253 15.862-2.972 31.509-6.844 45.945-14.598 4.272-2.296 7.298-6.326 11.984-7.877 1.318-1.005 2.64-2.01 3.96-3.015-1.673 5.661-6.107 9.089-10.61 12.102-13.486 9.025-28.86 13.365-44.491 16.727-20.691 4.45-41.662 7.366-62.654 9.878-12.466 1.491-25.018 2.47-37.564 3.396-18.024 1.331-36.142 1.061-54.079 3.047-7.07.782-13.853-.194-20.767-.214-23.237-.063-46.483.354-69.709-.156-20.374-.449-40.774-1.336-61.077-3.048-28.98-2.445-57.822-6.28-86.397-11.83-17.662-3.432-35.043-7.877-50.297-17.94-4.011-2.648-8.412-5.495-9.426-10.963z"/><path fill="#030204" d="M55.046 549.13c72.459.019 144.917.044 217.376.051 95.445.01 190.891.003 286.336-.002 1.998 0 3.996-.059 5.992-.09 1.866 1.781 1.057 4.081 1.059 6.146.052 55.853.05 111.706.057 167.56-.452 5.127-1.689 9.986-4.785 14.23-11.787 13.586-27.905 18.991-44.556 22.864-29.724 6.914-59.936 10.82-90.31 13.603a988.73 988.73 0 0 1-82.722 4.079c-10.963.083-21.896 1.021-32.87-.146-5.479-.582-10.897 1.323-16.424.948-24.732-1.681-49.533-1.028-74.292-2.778-35.422-2.502-70.6-6.494-105.45-13.248-14.091-2.729-27.969-6.279-40.621-13.433-7.945-4.492-15.421-9.436-17.729-19.153-1.431-4.984-1.86-10.062-1.854-15.252.06-53.016.031-106.031.055-159.047.001-2.124-.486-4.338.738-6.332z"/><path fill="#9F9C9B" d="M560.746 735.558c2.454-3.955 3.711-8.39 5.119-12.764 1.605 8.047-2.463 14.535-5.824 21.22-8.53 10.015-20.521 14.026-32.381 17.622-23.015 6.979-46.813 10.223-70.61 13.356-16.906 2.227-33.854 3.785-50.855 5.108-21.739 1.692-43.463 2.087-65.229 1.769.601-2.78 2.957-2.216 4.771-2.339 15.754-1.066 31.561-1.06 47.313-2.118 40.193-2.701 80.213-6.913 119.63-15.533 14.194-3.104 27.923-7.65 39.783-16.577 3.524-2.656 6.313-5.823 8.283-9.744z"/><path fill="#8B8888" d="M560.746 735.558c-1.586 8.608-8.627 12.222-15.177 15.951-13.896 7.914-29.285 11.484-44.835 14.365-21.146 3.916-42.395 7.081-63.813 9.135-11.866 1.138-23.717 2.271-35.62 3.058-14.081.93-28.164 1.435-42.242 2.146-5.965.302-12.233-.522-18.095 1.657-34.301-.036-68.619.587-102.896-.342-22.292-.604-44.584-2.553-66.769-5.526-23.94-3.21-47.819-6.602-71.324-12.253-3.048-.733-5.998-1.875-8.994-2.827-7.9-4.338-16.612-7.227-23.744-12.929-5.874-4.695-11.205-9.848-11.129-18.231 8.852 16.522 24.911 22.309 41.329 26.967 24.547 6.967 49.847 10.178 75.111 13.178 35.713 4.241 71.585 5.894 107.557 6.342 37.245.465 74.476.496 111.66-1.563 41.385-2.293 82.528-6.852 123.071-15.852 8.124-1.804 16.038-4.296 23.695-7.624 8.505-3.698 16.176-8.496 22.215-15.652z"/><path fill="#C9C7C7" d="M54.864 61.981c.024 4.497.069 8.993.07 13.489.003 155.259.002 310.518.012 465.776 0 2.494.137 4.988.209 7.481-1.957-1.084-1.142-2.965-1.143-4.485-.044-159.172-.048-318.345-.033-477.517 0-1.61-.484-3.366.885-4.744z"/><path fill="#010202" d="M221.457 636.702c3.926.158 8.58-.258 13.161 1.053 6.896 1.974 9.638 5.283 9.915 12.44.742 19.252-9.403 30.564-28.491 31.589-4.48.24-8.984-.001-13.478.059-2.344.03-3.652-.107-2.99-3.313 2.675-12.96 5.032-25.986 7.413-39.006.368-2.013 1.234-2.886 3.276-2.842 3.493.075 6.988.02 11.194.02zm184.757.038c4.1.188 8.925-.32 13.679 1.046 6.903 1.982 9.932 5.73 10.04 12.931.289 19.355-10.349 30.521-29.689 31.082-3.993.116-8.012-.209-11.986.087-3.513.262-3.835-1.261-3.271-4.107a3703.167 3703.167 0 0 0 7.281-37.68c.472-2.515 1.492-3.675 4.253-3.421 2.972.274 5.99.062 9.693.062z"/><path fill-rule="evenodd" clip-rule="evenodd" fill="#C50C30" d="M199.505 158.472c0 44.415-.046 87.563.011 130.709.071 51.549 34.219 94.818 84.285 106.941 59.574 14.425 120.553-24.915 132.558-85.517 11.956-60.337-29.832-120.04-90.375-129.123-14.972-2.245-14.972-2.245-14.972 12.659 0 15.067 0 15.067 15.091 18.267 37.698 7.991 65.436 45.774 61.524 83.799-4.159 40.422-37.221 71.571-76.529 72.102-45.74.619-80.784-33.347-81.098-79.262-.324-47.165.182-94.336-.31-141.497-.091-8.763 2.715-13.051 11.838-14.491v8.188c0 49.144-.156 98.288.051 147.431.142 34.221 23.914 62.424 56.211 67.385 33.779 5.188 65.221-14.579 75.442-47.432 12.031-38.681-15.105-80.92-55.184-86.013-4.653-.591-7.886-.202-7.087 5.763.297 2.221.299 4.546.006 6.767-1.424 10.835.176 17.73 13.23 21.717 16.868 5.15 24.704 24.759 20.125 41.627-5.105 18.808-21.271 29.59-41.012 27.349-16.582-1.877-30.746-16.433-30.904-33.941-.495-54.786-.207-109.579-.51-164.369-.03-5.564 3.382-5.837 6.829-6.435 45.167-7.836 86.976 1.107 124.954 26.488 58.715 39.241 86.565 108.619 72.085 177.865-13.951 66.729-68.332 119.397-136.411 132.118-93.389 17.447-184.342-46.76-199.146-140.589-9.505-60.251 13.383-122.326 59.298-158.506z"/><path fill-rule="evenodd" clip-rule="evenodd" fill="#FCFCFC" d="M302.959 376.13c6.472.1 9.418 2.468 9.407 7.557-.012 5.326-3.217 8.068-10.422 7.419-7.994-.721-2.657-7.093-3.505-10.683-.987-4.177-.187-4.366 4.52-4.293z"/><path fill-rule="evenodd" clip-rule="evenodd" fill="#FFF" d="M361.05 653.063c1.73-.182 1.961-1.932 2.698-3.061 6.445-9.867 12.915-19.722 19.133-29.73 1.533-2.468 3.193-3.36 5.982-3.178 4.14.271 9.696-1.382 12.086.711 2.793 2.447.852 8.134.884 12.402.111 14.978-.066 29.959.125 44.935.045 3.485-.908 4.458-4.409 4.436-12.237-.08-12.223.06-12.244-12.397-.013-7.65-.081-15.302-.141-22.952-.001-.093-.219-.184-.43-.35-1.932.215-2.36 2.031-3.205 3.329-6.249 9.601-12.548 19.173-18.598 28.897-1.612 2.591-3.358 3.682-6.393 3.44-4.129-.327-9.518 1.279-12.099-.782-2.745-2.194-.81-7.803-.842-11.906-.118-15.144.071-30.29-.135-45.433-.048-3.533.946-4.396 4.407-4.37 12.479.097 12.466-.04 12.484 12.278.012 7.819.069 15.64.127 23.459.004.071.286.141.57.272zm-175.088.514c4.215-6.446 8.377-12.778 12.504-19.132 3.078-4.738 6.246-9.424 9.105-14.291 1.369-2.33 2.984-3.276 5.631-3.042 4.268.38 9.758-1.756 12.501.831 2.528 2.385.685 7.875.708 11.99.087 15.156-.054 30.315.106 45.472.033 3.179-.717 4.184-4.062 4.175-12.412-.035-12.41.102-12.413-12.276-.003-7.828-.014-15.656-.038-23.484 0-.093-.238-.186-.514-.387-2.046-.021-2.293 2.067-3.076 3.252-6.138 9.284-12.318 18.554-18.037 28.097-2.164 3.61-4.497 4.927-8.687 4.814-11.377-.305-11.383-.103-11.383-11.286 0-15.657.127-31.316-.094-46.971-.051-3.626 1.045-4.576 4.451-4.254 3.781.357 8.826-1.187 11.093.731 2.673 2.262.765 7.462.854 11.376.18 7.823.088 15.654.127 23.481.003.098.249.193 1.224.904zm-78.617-5.291c0-9.154.088-18.31-.054-27.46-.042-2.727.615-3.78 3.57-3.747 13.146.149 26.296.106 39.443.024 2.214-.014 3.117.376 3.231 2.931.527 11.707.629 11.703-10.995 11.703-4.66 0-9.341.271-13.974-.083-3.926-.3-4.383 1.563-4.153 4.71.2 2.738-.758 5.737 3.996 5.372 4.118-.315 8.317.029 12.452.407 10.93.997 17.422 7.448 17.659 17.299.268 11.077-5.672 18.593-16.916 19.514-10.585.866-21.281.352-31.926.564-2.696.054-2.334-1.635-2.334-3.275l.001-27.959zm362.573 31.203c-6.976 0-12.796-.125-18.606.056-2.701.084-3.735-1.59-4.959-3.417-5.058-7.548-10.174-15.057-16.247-22.445 0 7.019-.276 14.054.104 21.052.224 4.119-1.247 4.893-5.004 4.841-12.187-.17-12.188-.027-12.188-11.979 0-15.479.101-30.96-.079-46.438-.038-3.288.873-4.426 4.123-4.05 4.229.489 9.901-1.846 12.347 1.015 2.082 2.436.637 7.915.687 12.048.048 3.919.011 7.838 1.084 12.183 5.003-6.887 10.257-13.61 14.903-20.73 2.314-3.545 4.862-4.871 8.969-4.557 4.447.341 8.941.077 14.325.077-6.954 8.854-13.349 17.225-20.019 25.37-2.73 3.334-3.585 5.631-.282 9.556 7.128 8.468 13.466 17.604 20.842 27.418zm-183.127-31.582c.001-8.984.137-17.972-.074-26.95-.072-3.084.775-3.972 3.871-3.888 8.146.22 16.306-.043 24.455.104 11.942.216 20.167 8.133 20.804 19.788.626 11.441-6.563 19.842-18.374 21.458-1.482.203-2.97.418-4.462.505-8.889.519-8.89.507-8.89 9.733 0 10.834 0 10.833-10.791 10.832-6.538-.001-6.538-.001-6.539-6.626v-24.956z"/><path fill-rule="evenodd" clip-rule="evenodd" fill="#FFF" d="M517.343 637.081c-11.268-8.146-20.144-8.616-26.486-1.811-5.687 6.104-6.437 18.114-1.532 24.59 6.054 7.993 14.437 8.255 28.015.566 0 5.029-.064 9.779.024 14.528.052 2.766-2.272 3.103-3.916 3.877-19.425 9.144-41.438-3.059-44.737-25.183-1.881-12.613 1.431-24.065 11.992-32.009 9.926-7.465 21.029-8.345 32.599-3.57 3.065 1.266 4.364 3.011 4.111 6.395-.298 3.973-.07 7.982-.07 12.617zm-251.98 18.563c0 6.652-.14 13.311.064 19.958.089 2.916-.476 4.234-3.753 3.956-4.278-.364-9.874 1.362-12.552-.768-2.83-2.252-.859-8.079-.914-12.335-.128-10.145-.134-20.293.016-30.437.045-3.051-.496-4.389-4.039-4.381-10.094.021-9.922-.166-10.033-10.568-.036-3.439 1.127-4.032 4.212-3.992 12.306.161 24.619.188 36.923-.013 3.358-.055 4.552 1.023 4.047 4.218-.025.162-.004.332-.003.498.073 9.819.07 10.011-9.771 9.858-3.687-.058-4.394 1.229-4.27 4.548.243 6.478.073 12.971.073 19.458z"/><path fill-rule="evenodd" clip-rule="evenodd" d="M130.719 667.473c-1.86-.791-5.369 1.438-5.964-1.284-.821-3.755-.816-7.889.19-11.782.1-.387 1.43-.644 2.187-.639 2.818.02 5.65.027 8.45.31 3.899.394 5.854 2.576 5.822 6.645-.032 4.109-2.153 6.074-5.997 6.511-1.48.166-2.98.158-4.688.239zm178.121-37.122c6.472.1 9.418 2.468 9.407 7.557-.012 5.326-3.217 8.068-10.422 7.419-7.994-.721-2.657-7.093-3.505-10.683-.987-4.177-.187-4.367 4.52-4.293z"/></svg>